<svg xmlns="http://www.w3.org/2000/svg" viewBox="0 0 1920 1080" fill="none">
  <!-- Definições de gradientes e filtros -->
  <defs>
    <linearGradient id="hudGlow" x1="0%" y1="0%" x2="0%" y2="100%">
      <stop offset="0%" style="stop-color:#00ffff;stop-opacity:0.8" />
      <stop offset="100%" style="stop-color:#00ff88;stop-opacity:0.4" />
    </linearGradient>
    
    <filter id="glow">
      <feGaussianBlur stdDeviation="3" result="coloredBlur"/>
      <feMerge>
        <feMergeNode in="coloredBlur"/>
        <feMergeNode in="SourceGraphic"/>
      </feMerge>
    </filter>
    
    <filter id="scanline">
      <feTurbulence type="fractalNoise" baseFrequency="0.8" numOctaves="1" result="noise"/>
      <feColorMatrix in="noise" type="matrix" values="0 0 0 0 0, 0 0 0 0 0, 0 0 0 0 0, 0 0 0 0.05 0"/>
    </filter>
  </defs>

  <!-- Fundo com scanlines -->
  <rect width="1920" height="1080" fill="url(#scanline)" opacity="0.3"/>

  <!-- MIRA CENTRAL -->
  <g id="centerReticle" transform="translate(960, 540)">
    <!-- Círculo externo -->
    <circle cx="0" cy="0" r="80" stroke="#00ffff" stroke-width="2" opacity="0.6" fill="none"/>
    <circle cx="0" cy="0" r="60" stroke="#00ffff" stroke-width="1.5" opacity="0.4" fill="none"/>
    
    <!-- Cruz central -->
    <line x1="-100" y1="0" x2="-85" y2="0" stroke="#00ffff" stroke-width="2" opacity="0.8"/>
    <line x1="85" y1="0" x2="100" y2="0" stroke="#00ffff" stroke-width="2" opacity="0.8"/>
    <line x1="0" y1="-100" x2="0" y2="-85" stroke="#00ffff" stroke-width="2" opacity="0.8"/>
    <line x1="0" y1="85" x2="0" y2="100" stroke="#00ffff" stroke-width="2" opacity="0.8"/>
    
    <!-- Ponto central -->
    <circle cx="0" cy="0" r="3" fill="#00ffff" opacity="0.9"/>
    
    <!-- Marcadores de precisão -->
    <circle cx="0" cy="0" r="15" stroke="#ff00ff" stroke-width="1" opacity="0.5" fill="none" stroke-dasharray="2,4"/>
    
    <!-- Indicadores de direção -->
    <path d="M -70,-70 L -60,-80 L -80,-60 Z" fill="#00ffff" opacity="0.4"/>
    <path d="M 70,-70 L 80,-60 L 60,-80 Z" fill="#00ffff" opacity="0.4"/>
    <path d="M -70,70 L -80,60 L -60,80 Z" fill="#00ffff" opacity="0.4"/>
    <path d="M 70,70 L 60,80 L 80,60 Z" fill="#00ffff" opacity="0.4"/>
  </g>

  <!-- PAINEL SUPERIOR ESQUERDO - VELOCIDADE -->
  <g id="speedPanel" transform="translate(100, 100)">
    <rect x="0" y="0" width="280" height="120" fill="none" stroke="#00ffff" stroke-width="2" opacity="0.3"/>
    <line x1="0" y1="30" x2="280" y2="30" stroke="#00ffff" stroke-width="1" opacity="0.3"/>
    <text x="10" y="20" font-family="monospace" font-size="14" fill="#00ffff" opacity="0.8">VELOCIDADE</text>
    <text id="speedValue" x="140" y="80" font-family="monospace" font-size="48" fill="#00ff88" text-anchor="middle" font-weight="bold">0</text>
    <text x="200" y="80" font-family="monospace" font-size="20" fill="#00ffff" opacity="0.6">KM/H</text>
    <rect x="10" y="95" width="260" height="15" fill="none" stroke="#00ffff" stroke-width="1" opacity="0.3"/>
    <rect id="speedBar" x="10" y="95" width="0" height="15" fill="url(#hudGlow)" opacity="0.6"/>
  </g>

  <!-- PAINEL SUPERIOR DIREITO - ALTITUDE -->
  <g id="altitudePanel" transform="translate(1540, 100)">
    <rect x="0" y="0" width="280" height="120" fill="none" stroke="#00ffff" stroke-width="2" opacity="0.3"/>
    <line x1="0" y1="30" x2="280" y2="30" stroke="#00ffff" stroke-width="1" opacity="0.3"/>
    <text x="10" y="20" font-family="monospace" font-size="14" fill="#00ffff" opacity="0.8">ALTITUDE</text>
    <text id="altitudeValue" x="140" y="80" font-family="monospace" font-size="48" fill="#00ff88" text-anchor="middle" font-weight="bold">0</text>
    <text x="200" y="80" font-family="monospace" font-size="20" fill="#00ffff" opacity="0.6">M</text>
    <!-- Escala vertical -->
    <line x1="250" y1="40" x2="250" y2="110" stroke="#00ffff" stroke-width="2" opacity="0.4"/>
    <circle id="altMarker" cx="250" cy="75" r="5" fill="#ff00ff" opacity="0.8"/>
  </g>

  <!-- PAINEL INFERIOR ESQUERDO - BATERIA -->
  <g id="batteryPanel" transform="translate(100, 860)">
    <rect x="0" y="0" width="280" height="120" fill="none" stroke="#00ffff" stroke-width="2" opacity="0.3"/>
    <line x1="0" y1="30" x2="280" y2="30" stroke="#00ffff" stroke-width="1" opacity="0.3"/>
    <text x="10" y="20" font-family="monospace" font-size="14" fill="#00ffff" opacity="0.8">BATERIA</text>
    <text id="batteryValue" x="140" y="75" font-family="monospace" font-size="42" fill="#00ff88" text-anchor="middle" font-weight="bold">100%</text>
    <!-- Ícone de bateria -->
    <rect x="20" y="85" width="240" height="25" fill="none" stroke="#00ffff" stroke-width="2" opacity="0.4" rx="3"/>
    <rect id="batteryFill" x="22" y="87" width="236" height="21" fill="#00ff88" opacity="0.6"/>
    <rect x="260" y="92" width="8" height="11" fill="#00ffff" opacity="0.4"/>
  </g>

  <!-- PAINEL INFERIOR DIREITO - TELEMETRIA -->
  <g id="telemetryPanel" transform="translate(1540, 860)">
    <rect x="0" y="0" width="280" height="120" fill="none" stroke="#00ffff" stroke-width="2" opacity="0.3"/>
    <line x1="0" y1="30" x2="280" y2="30" stroke="#00ffff" stroke-width="1" opacity="0.3"/>
    <text x="10" y="20" font-family="monospace" font-size="14" fill="#00ffff" opacity="0.8">TELEMETRIA</text>
    <text id="distanceValue" x="10" y="55" font-family="monospace" font-size="16" fill="#00ff88">DIST: 0M</text>
    <text id="coordsValue" x="10" y="75" font-family="monospace" font-size="12" fill="#00ffff" opacity="0.7">GPS: 0,0,0</text>
    <text id="timeValue" x="10" y="95" font-family="monospace" font-size="16" fill="#00ffff" opacity="0.7">TEMPO: 00:00</text>
    <text id="modeValue" x="10" y="115" font-family="monospace" font-size="14" fill="#ff00ff" opacity="0.8">MODO: NORMAL</text>
  </g>

  <!-- PAINEL CENTRAL SUPERIOR - STATUS DE SISTEMAS -->
  <g id="systemStatus" transform="translate(760, 50)">
    <rect x="0" y="0" width="400" height="60" fill="none" stroke="#00ffff" stroke-width="2" opacity="0.3"/>
    <text x="200" y="20" font-family="monospace" font-size="14" fill="#00ffff" opacity="0.8" text-anchor="middle">STATUS DO SISTEMA</text>
    
    <!-- Indicadores de sistema -->
    <g transform="translate(20, 30)">
      <circle id="gpsStatus" cx="0" cy="0" r="8" fill="#00ff88" opacity="0.8"/>
      <text x="15" y="5" font-family="monospace" font-size="12" fill="#00ffff">GPS</text>
    </g>
    
    <g transform="translate(120, 30)">
      <circle id="imuStatus" cx="0" cy="0" r="8" fill="#00ff88" opacity="0.8"/>
      <text x="15" y="5" font-family="monospace" font-size="12" fill="#00ffff">IMU</text>
    </g>
    
    <g transform="translate(220, 30)">
      <circle id="motorStatus" cx="0" cy="0" r="8" fill="#00ff88" opacity="0.8"/>
      <text x="15" y="5" font-family="monospace" font-size="12" fill="#00ffff">MOTOR</text>
    </g>
    
    <g transform="translate(320, 30)">
      <circle id="linkStatus" cx="0" cy="0" r="8" fill="#00ff88" opacity="0.8"/>
      <text x="15" y="5" font-family="monospace" font-size="12" fill="#00ffff">LINK</text>
    </g>
  </g>

  <!-- HORIZONTE ARTIFICIAL -->
  <g id="artificialHorizon" transform="translate(1700, 540)">
    <circle cx="0" cy="0" r="100" stroke="#00ffff" stroke-width="2" opacity="0.3" fill="none"/>
    <line id="horizonLine" x1="-80" y1="0" x2="80" y2="0" stroke="#00ff88" stroke-width="3" opacity="0.8"/>
    <line x1="0" y1="-100" x2="0" y2="100" stroke="#00ffff" stroke-width="1" opacity="0.3"/>
    <text x="0" y="-110" font-family="monospace" font-size="12" fill="#00ffff" text-anchor="middle" opacity="0.7">HORIZONTE</text>
    
    <!-- Marcadores de pitch -->
    <line x1="-60" y1="-30" x2="60" y2="-30" stroke="#00ffff" stroke-width="1" opacity="0.4"/>
    <line x1="-60" y1="30" x2="60" y2="30" stroke="#00ffff" stroke-width="1" opacity="0.4"/>
    <text x="70" y="-26" font-family="monospace" font-size="10" fill="#00ffff" opacity="0.5">+10°</text>
    <text x="70" y="34" font-family="monospace" font-size="10" fill="#00ffff" opacity="0.5">-10°</text>
  </g>

  <!-- INDICADOR DE INCLINAÇÃO (ROLL) -->
  <g id="rollIndicator" transform="translate(220, 540)">
    <circle cx="0" cy="0" r="100" stroke="#00ffff" stroke-width="2" opacity="0.3" fill="none"/>
    <line x1="0" y1="-100" x2="0" y2="-85" stroke="#00ffff" stroke-width="2" opacity="0.6"/>
    <line x1="0" y1="85" x2="0" y2="100" stroke="#00ffff" stroke-width="2" opacity="0.6"/>
    <line x1="-100" y1="0" x2="-85" y2="0" stroke="#00ffff" stroke-width="2" opacity="0.6"/>
    <line x1="85" y1="0" x2="100" y2="0" stroke="#00ffff" stroke-width="2" opacity="0.6"/>
    <text x="0" y="-110" font-family="monospace" font-size="12" fill="#00ffff" text-anchor="middle" opacity="0.7">ROLL</text>
    <line id="rollLine" x1="-80" y1="0" x2="80" y2="0" stroke="#ff00ff" stroke-width="3" opacity="0.8"/>
  </g>

  <!-- BÚSSOLA -->
  <g id="compass" transform="translate(960, 980)">
    <rect x="-200" y="-25" width="400" height="50" fill="none" stroke="#00ffff" stroke-width="2" opacity="0.3"/>
    <line x1="-200" y1="0" x2="200" y2="0" stroke="#00ffff" stroke-width="1" opacity="0.3"/>
    
    <!-- Marcadores cardinais -->
    <text x="-150" y="-5" font-family="monospace" font-size="14" fill="#00ffff" opacity="0.6">W</text>
    <text x="-75" y="-5" font-family="monospace" font-size="14" fill="#00ffff" opacity="0.6">NW</text>
    <text x="0" y="-5" font-family="monospace" font-size="16" fill="#00ff88" text-anchor="middle" font-weight="bold">N</text>
    <text x="75" y="-5" font-family="monospace" font-size="14" fill="#00ffff" opacity="0.6">NE</text>
    <text x="150" y="-5" font-family="monospace" font-size="14" fill="#00ffff" opacity="0.6">E</text>
    
    <!-- Indicador de direção -->
    <path d="M 0,-25 L -5,-15 L 5,-15 Z" fill="#ff00ff" opacity="0.8"/>
    <text id="headingValue" x="0" y="20" font-family="monospace" font-size="14" fill="#00ffff" text-anchor="middle">0°</text>
  </g>

  <!-- INDICADOR DE OBJETIVO -->
  <g id="objectiveIndicator" transform="translate(960, 200)">
    <path d="M 0,-30 L -15,0 L 0,30 L 15,0 Z" fill="none" stroke="#ff00ff" stroke-width="2" opacity="0.6"/>
    <circle cx="0" cy="0" r="5" fill="#ff00ff" opacity="0.8"/>
    <text id="objectiveText" x="0" y="-40" font-family="monospace" font-size="14" fill="#ff00ff" text-anchor="middle" opacity="0.8">CHECKPOINT 1</text>
  </g>

  <!-- AVISOS E ALERTAS -->
  <g id="warningPanel" transform="translate(760, 120)">
    <rect id="warningBox" x="0" y="0" width="400" height="40" fill="none" stroke="#ff0000" stroke-width="2" opacity="0" rx="5"/>
    <text id="warningText" x="200" y="25" font-family="monospace" font-size="16" fill="#ff0000" text-anchor="middle" opacity="0" font-weight="bold"></text>
  </g>

  <!-- CANTOS DECORATIVOS -->
  <g id="cornerDecorations">
    <!-- Canto superior esquerdo -->
    <line x1="20" y1="20" x2="80" y2="20" stroke="#00ffff" stroke-width="2" opacity="0.4"/>
    <line x1="20" y1="20" x2="20" y2="80" stroke="#00ffff" stroke-width="2" opacity="0.4"/>
    
    <!-- Canto superior direito -->
    <line x1="1840" y1="20" x2="1900" y2="20" stroke="#00ffff" stroke-width="2" opacity="0.4"/>
    <line x1="1900" y1="20" x2="1900" y2="80" stroke="#00ffff" stroke-width="2" opacity="0.4"/>
    
    <!-- Canto inferior esquerdo -->
    <line x1="20" y1="1000" x2="20" y2="1060" stroke="#00ffff" stroke-width="2" opacity="0.4"/>
    <line x1="20" y1="1060" x2="80" y2="1060" stroke="#00ffff" stroke-width="2" opacity="0.4"/>
    
    <!-- Canto inferior direito -->
    <line x1="1900" y1="1000" x2="1900" y2="1060" stroke="#00ffff" stroke-width="2" opacity="0.4"/>
    <line x1="1840" y1="1060" x2="1900" y2="1060" stroke="#00ffff" stroke-width="2" opacity="0.4"/>
  </g>

  <!-- GRID DE REFERÊNCIA -->
  <g id="referenceGrid" opacity="0.1">
    <line x1="960" y1="0" x2="960" y2="1080" stroke="#00ffff" stroke-width="1"/>
    <line x1="0" y1="540" x2="1920" y2="540" stroke="#00ffff" stroke-width="1"/>
  </g>
</svg>
