<?xml version="1.0" encoding="UTF-8"?>
<svg width="1024" height="600" viewBox="0 0 1024 600" xmlns="http://www.w3.org/2000/svg">
  <!-- Fundo transparente -->
  <rect width="1024" height="600" fill="transparent"/>
  
  <!-- Frame principal baseado na nova imagem -->
  <g stroke="#ffffff" stroke-width="2" fill="none" opacity="0.8">
    
    <!-- Frame superior -->
    <path d="M 100 50 L 200 50 L 220 70 L 804 70 L 824 50 L 924 50" stroke="#ffffff" stroke-width="2"/>
    
    <!-- Frame inferior -->
    <path d="M 100 550 L 200 550 L 220 530 L 804 530 L 824 550 L 924 550" stroke="#ffffff" stroke-width="2"/>
    
    <!-- Laterais esquerda -->
    <path d="M 100 50 L 80 80 L 80 200 L 60 220 L 60 380 L 80 400 L 80 520 L 100 550" stroke="#ffffff" stroke-width="2"/>
    
    <!-- Laterais direita -->
    <path d="M 924 50 L 944 80 L 944 200 L 964 220 L 964 380 L 944 400 L 944 520 L 924 550" stroke="#ffffff" stroke-width="2"/>
    
    <!-- Cantos internos superiores -->
    <path d="M 220 70 L 200 90 L 200 150" stroke="#ffffff" stroke-width="2"/>
    <path d="M 804 70 L 824 90 L 824 150" stroke="#ffffff" stroke-width="2"/>
    
    <!-- Cantos internos inferiores -->
    <path d="M 220 530 L 200 510 L 200 450" stroke="#ffffff" stroke-width="2"/>
    <path d="M 804 530 L 824 510 L 824 450" stroke="#ffffff" stroke-width="2"/>
    
    <!-- Elementos decorativos laterais -->
    <path d="M 200 200 L 180 200 L 160 220 L 180 240 L 200 240" stroke="#ffffff" stroke-width="1"/>
    <path d="M 200 360 L 180 360 L 160 380 L 180 400 L 200 400" stroke="#ffffff" stroke-width="1"/>
    
    <path d="M 824 200 L 844 200 L 864 220 L 844 240 L 824 240" stroke="#ffffff" stroke-width="1"/>
    <path d="M 824 360 L 844 360 L 864 380 L 844 400 L 824 400" stroke="#ffffff" stroke-width="1"/>
  </g>
  
  <!-- Crosshair central minimalista -->
  <g stroke="#ffffff" stroke-width="2" fill="none" opacity="0.9">
    <!-- Cruz central -->
    <line x1="492" y1="300" x2="532" y2="300"/>
    <line x1="512" y1="280" x2="512" y2="320"/>
    
    <!-- Círculo central -->
    <circle cx="512" cy="300" r="8" stroke="#ffffff" stroke-width="2" fill="none"/>
    <circle cx="512" cy="300" r="3" fill="#ffffff"/>
    
    <!-- Marcadores de mira -->
    <path d="M 480 288 L 480 292 L 484 292 L 484 288 Z" fill="#ffffff"/>
    <path d="M 544 288 L 544 292 L 540 292 L 540 288 Z" fill="#ffffff"/>
    <path d="M 500 268 L 504 268 L 504 272 L 500 272 Z" fill="#ffffff"/>
    <path d="M 500 332 L 504 332 L 504 328 L 500 328 Z" fill="#ffffff"/>
  </g>
  
  <!-- Painéis de dados limpos (sem valores numéricos) -->
  
  <!-- Velocímetro em M/S (superior esquerdo) -->
  <g>
    <rect x="120" y="100" width="100" height="60" stroke="#ffffff" stroke-width="1" fill="rgba(0,0,0,0.3)" rx="3"/>
    <text x="170" y="145" text-anchor="middle" fill="#ffffff" font-family="monospace" font-size="10">KM/H</text>
  </g>
  
  <!-- Bateria (superior direito) -->
  <g>
    <rect x="804" y="100" width="100" height="60" stroke="#ffffff" stroke-width="1" fill="rgba(0,0,0,0.3)" rx="3"/>
    <!-- Ícone da bateria -->
    <rect x="830" y="115" width="25" height="12" stroke="#ffffff" stroke-width="1" fill="none"/>
    <rect x="855" y="119" width="2" height="4" fill="#ffffff"/>
    <text x="874" y="150" text-anchor="middle" fill="#ffffff" font-family="monospace" font-size="8">ENERGIA</text>
  </g>
  
  <!-- Altímetro em metros (inferior esquerdo) -->
  <g>
    <rect x="120" y="440" width="100" height="60" stroke="#ffffff" stroke-width="1" fill="rgba(0,0,0,0.3)" rx="3"/>
    <text x="170" y="485" text-anchor="middle" fill="#ffffff" font-family="monospace" font-size="10">METROS</text>
  </g>
  
  <!-- GPS com seta para próximo objetivo (inferior direito) -->
  <g>
    <rect x="804" y="440" width="100" height="60" stroke="#ffffff" stroke-width="1" fill="rgba(0,0,0,0.3)" rx="3"/>
    
    <!-- Círculo do GPS -->
    <circle cx="854" cy="460" r="12" stroke="#ffffff" stroke-width="2" fill="none"/>
    
    <!-- Seta apontando para o objetivo (direção padrão: nordeste) -->
    <g id="gps-arrow" transform="rotate(45 854 460)">
      <path d="M 854 450 L 859 460 L 854 465 L 849 460 Z" fill="#ffffff"/>
      <line x1="854" y1="460" x2="854" y2="470" stroke="#ffffff" stroke-width="2"/>
    </g>
    
    <text x="854" y="485" text-anchor="middle" fill="#ffffff" font-family="monospace" font-size="8">PRÓXIMO</text>
    <text x="854" y="495" text-anchor="middle" fill="#ffffff" font-family="monospace" font-size="8">OBJETIVO</text>
  </g>
  
  <!-- Distância do objetivo (centro inferior esquerda) -->
  <g>
    <text x="300" y="520" text-anchor="middle" fill="#ffffff" font-family="monospace" font-size="8">DISTÂNCIA</text>
    <text x="300" y="550" text-anchor="middle" fill="#ffffff" font-family="monospace" font-size="8">PARA OBJETIVO</text>
  </g>
  
  <!-- Modo de voo (centro inferior direita) -->
  <g>
    <text x="724" y="520" text-anchor="middle" fill="#ffffff" font-family="monospace" font-size="8">MODO DE VOO</text>
    <text x="724" y="535" text-anchor="middle" fill="#ffffff" font-family="monospace" font-size="12" font-weight="bold">CINEMATOGRÁFICO</text>
    <text x="724" y="550" text-anchor="middle" fill="#ffffff" font-family="monospace" font-size="8">ESTABILIZADO</text>
  </g>
  
  <!-- Indicadores de direção -->
  <g fill="#ffffff" font-family="monospace" font-size="10" text-anchor="middle" opacity="0.7">
    <text x="512" y="35">N</text>
    <text x="512" y="585">S</text>
    <text x="980" y="305">L</text>
    <text x="44" y="305">O</text>
  </g>
  
  <!-- Status superior -->
  <g fill="#ffffff" font-family="monospace" font-size="8" text-anchor="middle" opacity="0.8">
    <text x="350" y="25">TEMP: 25°C</text>
    <text x="512" y="25">MISSÃO: 02:34</text>
    <text x="674" y="25">X:0 Y:450 Z:0</text>
  </g>
  
  <!-- Indicador de posição central com sistema de colisão -->
  <!-- Círculo externo de aviso (pulsa quando há perigo) -->
  <circle id="collisionWarningOuter" cx="512" cy="300" r="15" fill="none" stroke="#00ff00" stroke-width="2" opacity="0"/>
  
  <!-- Círculo médio de aviso -->
  <circle id="collisionWarningMiddle" cx="512" cy="300" r="10" fill="none" stroke="#00ff00" stroke-width="2" opacity="0"/>
  
  <!-- Ponto central - muda de cor conforme proximidade -->
  <circle id="collisionWarningCenter" cx="512" cy="300" r="6" fill="#00ff00" opacity="0.8">
    <animate id="collisionPulse" attributeName="opacity" values="0.8;0.3;0.8" dur="2s" repeatCount="indefinite"/>
  </circle>
  
  <!-- Linhas de referência sutis -->
  <g stroke="#ffffff" stroke-width="1" fill="none" opacity="0.2">
    <line x1="300" y1="150" x2="724" y2="150"/>
    <line x1="300" y1="450" x2="724" y2="450"/>
    <line x1="300" y1="300" x2="350" y2="300"/>
    <line x1="674" y1="300" x2="724" y2="300"/>
  </g>
</svg>